Coordinates
version=1
nRows=5
nColumns=40
inDegrees=yes

Units are S.I. units (second, meters, Newtons, ...)
Angles are in degrees.

endheader
time	pelvis_tilt	pelvis_list	pelvis_rotation	pelvis_tx	pelvis_ty	pelvis_tz	hip_flexion_r	hip_adduction_r	hip_rotation_r	knee_angle_r	knee_angle_r_beta	ankle_angle_r	subtalar_angle_r	mtp_angle_r	hip_flexion_l	hip_adduction_l	hip_rotation_l	knee_angle_l	knee_angle_l_beta	ankle_angle_l	subtalar_angle_l	mtp_angle_l	lumbar_extension	lumbar_bending	lumbar_rotation	arm_flex_r	arm_add_r	arm_rot_r	elbow_flex_r	pro_sup_r	wrist_flex_r	wrist_dev_r	arm_flex_l	arm_add_l	arm_rot_l	elbow_flex_l	pro_sup_l	wrist_flex_l	wrist_dev_l
     19.98000000	     -4.44702323	     -3.17943302	     -3.39563743	      1.12606453	      0.93455451	      0.40074958	     31.04026060	     -6.30507114	     -5.26978358	     72.63363296	     72.63363296	      2.69700989	    -16.38114989	      1.96006238	     14.27353446	     -3.66046258	    -10.29958403	     18.99061865	     18.99061865	     11.00657597	     -9.64869718	     -2.51419827	     -9.04112840	      5.02986766	      0.86441002	     10.65172330	    -12.20997507	     -4.77226130	     53.39621972	     44.69240045	      0.00000000	      0.00000000	     10.81881070	    -12.60548249	      3.11856198	     42.51089002	     45.17345847	      0.00000000	      0.00000000
     19.99142857	     -4.28552273	     -3.27712585	     -3.57621204	      1.12538740	      0.93489325	      0.40036693	     32.19536810	     -6.31640277	     -5.34727341	     71.29714265	     71.29714265	      2.72538385	    -16.30219795	      1.91676014	     13.22885889	     -3.63423388	    -10.26789090	     18.59414308	     18.59414308	     11.39858194	     -9.80656144	     -2.58295638	     -9.25641180	      5.30520275	      1.30540185	      8.26818131	    -12.69743979	     -4.64588748	     50.80289794	     44.78180592	      0.00000000	      0.00000000	     12.97662774	    -12.82901897	      2.95297079	     43.86582585	     45.24011919	      0.00000000	      0.00000000
     20.00285714	     -4.12966742	     -3.35967787	     -3.74618153	      1.12469992	      0.93513111	      0.40005120	     33.20622737	     -6.32495252	     -5.45094382	     69.72468272	     69.72468272	      2.55123696	    -16.28547899	      1.58504192	     12.21349089	     -3.61653562	    -10.34081002	     18.21954626	     18.21954626	     11.67625245	     -9.86604121	     -3.05563131	     -9.37321200	      5.52237331	      1.01102803	      7.59804367	    -12.38917136	     -5.10624473	     44.71164174	     45.07009568	      0.00000000	      0.00000000	     14.60935408	    -13.63793968	      3.42517784	     45.51454541	     45.29620176	      0.00000000	      0.00000000
     20.01428571	     -3.94437828	     -3.44619826	     -3.92673607	      1.12409461	      0.93532169	      0.39979156	     34.04506462	     -6.27942207	     -5.53806694	     67.92964248	     67.92964248	      2.47715050	    -16.23984605	      1.85736290	     11.17794735	     -3.61463441	    -10.48413131	     17.87830445	     17.87830445	     12.08957673	     -9.77978547	     -3.30468880	     -9.61104617	      5.76046576	      0.99830033	      6.28550099	    -12.37744109	     -5.52612631	     40.40762861	     45.28618501	      0.00000000	      0.00000000	     16.23846167	    -14.20690107	      3.28770250	     47.56736211	     45.42326084	      0.00000000	      0.00000000
     20.02571429	     -3.74200464	     -3.57870135	     -4.09612457	      1.12357341	      0.93556939	      0.39958171	     34.65650277	     -6.15297919	     -5.66746780	     65.77844004	     65.77844004	      2.34023626	    -16.22183029	      2.28331622	     10.08955975	     -3.64362917	    -10.57603365	     17.46555615	     17.46555615	     12.50466256	     -9.69448050	     -3.34535836	     -9.90319508	      6.06860772	      1.36422545	      4.16036558	    -12.73744189	     -5.52918975	     38.26172657	     45.36473887	      0.00000000	      0.00000000	     18.16138372	    -14.42614141	      2.96021393	     49.06248371	     45.50261719	      0.00000000	      0.00000000
